<svg width="18" height="18" viewBox="0 0 18 18" fill="none" xmlns="http://www.w3.org/2000/svg">
<path d="M14.9181 17.1975C14.8506 17.1975 14.7831 17.1975 14.7081 17.19C12.2856 16.9275 9.93063 16.0875 7.89813 14.7675C6.00813 13.5675 4.37313 11.9325 3.17313 10.0425C1.85313 8.0025 1.01313 5.64 0.758131 3.2175C0.728131 2.895 0.765631 2.5875 0.863131 2.2875C0.960631 1.9875 1.12563 1.7175 1.33563 1.485C1.54563 1.2525 1.80063 1.0725 2.08563 0.945C2.37813 0.8175 2.68563 0.75 3.00063 0.75H5.25063C5.77563 0.75 6.31563 0.9375 6.73563 1.2975C7.14813 1.65 7.41813 2.145 7.49313 2.685C7.58313 3.3525 7.74813 4.0125 7.98063 4.635C8.13063 5.04 8.16813 5.475 8.07063 5.895C7.98063 6.315 7.77063 6.705 7.47063 7.005L6.93063 7.545C7.81563 8.925 8.98563 10.1025 10.3731 10.9875L10.9131 10.4475C11.2206 10.14 11.6106 9.93 12.0306 9.8475C12.4506 9.7575 12.8856 9.7875 13.2906 9.9375C13.9131 10.17 14.5731 10.335 15.2331 10.425C15.7881 10.5 16.2831 10.7775 16.6431 11.1975C16.9956 11.6175 17.1906 12.15 17.1756 12.6975V14.94C17.1756 15.255 17.1156 15.555 16.9881 15.8475C16.8606 16.1325 16.6731 16.395 16.4481 16.605C16.2156 16.815 15.9456 16.98 15.6456 17.0775C15.4056 17.16 15.1656 17.1975 14.9181 17.1975ZM5.26563 2.25H5.25813H3.00063C2.89563 2.25 2.79813 2.2725 2.70063 2.3175C2.60313 2.355 2.51313 2.415 2.44563 2.49C2.37063 2.565 2.31813 2.655 2.28813 2.76C2.25813 2.8575 2.24313 2.9625 2.25063 3.0675C2.48313 5.25 3.24063 7.38 4.43313 9.2325C5.52063 10.9425 6.99813 12.42 8.70813 13.5075C10.5531 14.7075 12.6831 15.4575 14.8581 15.6975C14.9481 15.705 15.0531 15.69 15.1506 15.66C15.2481 15.63 15.3381 15.57 15.4206 15.5025C15.5031 15.435 15.5631 15.345 15.6006 15.2475C15.6456 15.15 15.6606 15.045 15.6606 14.94V12.69C15.6606 12.6825 15.6606 12.675 15.6606 12.675C15.6681 12.4875 15.6006 12.315 15.4806 12.1725C15.3606 12.03 15.1956 11.94 15.0156 11.9175C14.2506 11.82 13.4856 11.625 12.7506 11.355C12.6156 11.3025 12.4656 11.295 12.3306 11.325C12.1881 11.355 12.0606 11.4225 11.9556 11.5275L11.0106 12.48C10.7706 12.72 10.4031 12.765 10.1106 12.6C8.11563 11.4675 6.46563 9.81 5.32563 7.8225C5.16813 7.5075 5.21313 7.14 5.45313 6.9L6.40563 5.9475C6.50313 5.85 6.57063 5.7225 6.60063 5.58C6.63063 5.4375 6.62313 5.295 6.57063 5.16C6.29313 4.425 6.10563 3.66 6.00063 2.8875C5.97813 2.715 5.88813 2.55 5.75313 2.43C5.61813 2.3175 5.44563 2.25 5.26563 2.25Z" fill="#3BB77E"/>
</svg>
