<svg width="20" height="20" viewBox="0 0 20 20" fill="none" xmlns="http://www.w3.org/2000/svg">
<path fill-rule="evenodd" clip-rule="evenodd" d="M9.16797 3.33341C5.94631 3.33341 3.33464 5.94509 3.33464 9.16675C3.33464 12.3884 5.94631 15.0001 9.16797 15.0001C12.3896 15.0001 15.0013 12.3884 15.0013 9.16675C15.0013 5.94509 12.3896 3.33341 9.16797 3.33341ZM1.66797 9.16675C1.66797 5.02461 5.02583 1.66675 9.16797 1.66675C13.3101 1.66675 16.668 5.02461 16.668 9.16675C16.668 13.3089 13.3101 16.6667 9.16797 16.6667C5.02583 16.6667 1.66797 13.3089 1.66797 9.16675Z" fill="white"/>
<path fill-rule="evenodd" clip-rule="evenodd" d="M13.287 13.2858C13.6125 12.9604 14.1401 12.9604 14.4656 13.2858L18.0906 16.9108C18.416 17.2363 18.416 17.7639 18.0906 18.0893C17.7651 18.4148 17.2375 18.4148 16.912 18.0893L13.287 14.4643C12.9616 14.1389 12.9616 13.6113 13.287 13.2858Z" fill="white"/>
</svg>
