<svg width="237" height="56" viewBox="0 0 237 56" fill="none" xmlns="http://www.w3.org/2000/svg">
<circle cx="28" cy="28" r="22" fill="#3BB77E"/>
<path d="M25.6964 29.248C25.6244 29.248 24.0404 29.248 23.3204 29.248C22.9364 29.248 22.8164 29.104 22.8164 28.744C22.8164 27.784 22.8164 26.8 22.8164 25.84C22.8164 25.456 22.9604 25.336 23.3204 25.336H25.6964C25.6964 25.264 25.6964 23.872 25.6964 23.224C25.6964 22.264 25.8644 21.352 26.3444 20.512C26.8484 19.648 27.5684 19.072 28.4804 18.736C29.0804 18.52 29.6804 18.424 30.3284 18.424H32.6804C33.0164 18.424 33.1604 18.568 33.1604 18.904V21.64C33.1604 21.976 33.0164 22.12 32.6804 22.12C32.0324 22.12 31.3844 22.12 30.7364 22.144C30.0884 22.144 29.7524 22.456 29.7524 23.128C29.7284 23.848 29.7524 24.544 29.7524 25.288H32.5364C32.9204 25.288 33.0644 25.432 33.0644 25.816V28.72C33.0644 29.104 32.9444 29.224 32.5364 29.224C31.6724 29.224 29.8244 29.224 29.7524 29.224V37.048C29.7524 37.456 29.6324 37.6 29.2004 37.6C28.1924 37.6 27.2084 37.6 26.2004 37.6C25.8404 37.6 25.6964 37.456 25.6964 37.096C25.6964 34.576 25.6964 29.32 25.6964 29.248Z" fill="white"/>
<circle cx="88.334" cy="28" r="22" fill="#3BB77E"/>
<path d="M97.9353 37.6V30.568C97.9353 27.112 97.1913 24.472 93.1593 24.472C91.2153 24.472 89.9193 25.528 89.3913 26.536H89.3433V24.784H85.5273V37.6H89.5113V31.24C89.5113 29.56 89.8233 27.952 91.8873 27.952C93.9273 27.952 93.9513 29.848 93.9513 31.336V37.576H97.9353V37.6Z" fill="white"/>
<path d="M79.0469 24.784H83.0309V37.6H79.0469V24.784Z" fill="white"/>
<path d="M81.0384 18.4C79.7664 18.4 78.7344 19.432 78.7344 20.704C78.7344 21.976 79.7664 23.032 81.0384 23.032C82.3104 23.032 83.3424 21.976 83.3424 20.704C83.3424 19.432 82.3104 18.4 81.0384 18.4Z" fill="white"/>
<circle cx="148.666" cy="28" r="22" fill="#3BB77E"/>
<g clip-path="url(#clip0_242_1914)">
<path d="M160.664 23.0685C160.608 21.791 160.401 20.9128 160.105 20.1518C159.8 19.344 159.33 18.6208 158.715 18.0196C158.114 17.409 157.386 16.9346 156.587 16.6341C155.822 16.3381 154.948 16.1315 153.671 16.0752C152.384 16.0141 151.975 16 148.711 16C145.447 16 145.038 16.0141 143.756 16.0705C142.479 16.1268 141.6 16.3335 140.839 16.6293C140.031 16.9346 139.308 17.4042 138.707 18.0196C138.097 18.6208 137.622 19.3488 137.322 20.1472C137.026 20.9128 136.819 21.7863 136.763 23.0637C136.702 24.3507 136.688 24.7593 136.688 28.0235C136.688 31.2877 136.702 31.6962 136.758 32.9785C136.814 34.2559 137.021 35.1342 137.317 35.8952C137.622 36.703 138.097 37.4262 138.707 38.0274C139.308 38.638 140.036 39.1124 140.835 39.4129C141.6 39.7088 142.474 39.9154 143.751 39.9717C145.033 40.0283 145.442 40.0422 148.706 40.0422C151.971 40.0422 152.379 40.0283 153.661 39.9717C154.939 39.9154 155.817 39.7088 156.578 39.4129C158.194 38.7882 159.471 37.5108 160.096 35.8952C160.392 35.1296 160.598 34.2559 160.655 32.9785C160.711 31.6962 160.725 31.2877 160.725 28.0235C160.725 24.7593 160.72 24.3507 160.664 23.0685ZM158.499 32.8845C158.447 34.0587 158.25 34.6928 158.086 35.1155C157.682 36.1629 156.85 36.9941 155.803 37.3981C155.38 37.5625 154.742 37.7597 153.572 37.8113C152.304 37.8678 151.924 37.8817 148.716 37.8817C145.508 37.8817 145.123 37.8678 143.859 37.8113C142.685 37.7597 142.051 37.5625 141.628 37.3981C141.107 37.2055 140.633 36.9002 140.248 36.501C139.848 36.1111 139.543 35.6415 139.35 35.1202C139.186 34.6975 138.989 34.0587 138.937 32.8893C138.881 31.6212 138.867 31.2407 138.867 28.0328C138.867 24.825 138.881 24.4399 138.937 23.1766C138.989 22.0024 139.186 21.3683 139.35 20.9456C139.543 20.4242 139.848 19.95 140.252 19.5647C140.642 19.1655 141.112 18.8602 141.633 18.6677C142.056 18.5034 142.695 18.3061 143.864 18.2544C145.132 18.1981 145.513 18.184 148.72 18.184C151.933 18.184 152.313 18.1981 153.577 18.2544C154.751 18.3061 155.385 18.5034 155.808 18.6677C156.329 18.8602 156.803 19.1655 157.188 19.5647C157.588 19.9546 157.893 20.4242 158.086 20.9456C158.25 21.3683 158.447 22.007 158.499 23.1766C158.555 24.4447 158.569 24.825 158.569 28.0328C158.569 31.2407 158.555 31.6164 158.499 32.8845Z" fill="white"/>
<path d="M148.711 21.8474C145.302 21.8474 142.535 24.6136 142.535 28.0235C142.535 31.4333 145.302 34.1996 148.711 34.1996C152.121 34.1996 154.887 31.4333 154.887 28.0235C154.887 24.6136 152.121 21.8474 148.711 21.8474ZM148.711 32.0298C146.499 32.0298 144.705 30.2357 144.705 28.0235C144.705 25.8113 146.499 24.0172 148.711 24.0172C150.923 24.0172 152.718 25.8113 152.718 28.0235C152.718 30.2357 150.923 32.0298 148.711 32.0298Z" fill="white"/>
<path d="M156.573 21.6032C156.573 22.3994 155.928 23.045 155.131 23.045C154.335 23.045 153.689 22.3994 153.689 21.6032C153.689 20.8067 154.335 20.1613 155.131 20.1613C155.928 20.1613 156.573 20.8067 156.573 21.6032Z" fill="white"/>
</g>
<circle cx="209" cy="28" r="22" fill="#3BB77E"/>
<g clip-path="url(#clip1_242_1914)">
<path d="M221 20.5585C220.108 20.95 219.156 21.2095 218.165 21.3355C219.185 20.7265 219.964 19.7695 220.33 18.616C219.378 19.183 218.328 19.5835 217.209 19.807C216.306 18.8455 215.019 18.25 213.615 18.25C210.891 18.25 208.698 20.461 208.698 23.1715C208.698 23.5615 208.731 23.9365 208.812 24.2935C204.722 24.094 201.102 22.1335 198.671 19.147C198.247 19.8835 197.998 20.7265 197.998 21.634C197.998 23.338 198.875 24.8485 200.183 25.723C199.392 25.708 198.617 25.4785 197.96 25.117C197.96 25.132 197.96 25.1515 197.96 25.171C197.96 27.562 199.665 29.548 201.902 30.0055C201.501 30.115 201.065 30.1675 200.612 30.1675C200.297 30.1675 199.979 30.1495 199.681 30.0835C200.318 32.032 202.127 33.4645 204.278 33.511C202.604 34.8205 200.479 35.6095 198.178 35.6095C197.774 35.6095 197.387 35.5915 197 35.542C199.179 36.9475 201.763 37.75 204.548 37.75C213.602 37.75 218.552 30.25 218.552 23.749C218.552 23.5315 218.545 23.3215 218.534 23.113C219.51 22.42 220.331 21.5545 221 20.5585Z" fill="white"/>
</g>
<defs>
<clipPath id="clip0_242_1914">
<rect width="24" height="24.0423" fill="white" transform="translate(136.666 16)"/>
</clipPath>
<clipPath id="clip1_242_1914">
<rect width="24" height="24" fill="white" transform="translate(197 16)"/>
</clipPath>
</defs>
</svg>
